<svg width="140" height="140" viewBox="0 0 140 140" fill="none" xmlns="http://www.w3.org/2000/svg">
<path d="M70 0C31.3438 0 0 32.1563 0 71.7813C0 103.5 20.0625 130.375 47.875 139.875C48.2651 139.96 48.6633 140.002 49.0625 140C51.6563 140 52.6562 138.094 52.6562 136.438C52.6562 134.719 52.5937 130.219 52.5625 124.219C50.247 124.762 47.8782 125.045 45.5 125.063C32.0313 125.063 28.9687 114.594 28.9687 114.594C25.7812 106.313 21.1875 104.094 21.1875 104.094C15.0938 99.8125 21.1562 99.6875 21.625 99.6875H21.6563C28.6875 100.312 32.375 107.125 32.375 107.125C35.875 113.25 40.5625 114.969 44.75 114.969C47.5189 114.913 50.2449 114.274 52.75 113.094C53.375 108.469 55.1875 105.313 57.1875 103.5C41.6562 101.688 25.3125 95.5312 25.3125 68.0312C25.3125 60.1875 28.0312 53.7813 32.5 48.7813C31.7813 46.9688 29.375 39.6563 33.1875 29.7813C33.6989 29.6589 34.2245 29.6063 34.75 29.625C37.2812 29.625 43 30.5937 52.4375 37.1562C63.9048 33.9478 76.0327 33.9478 87.5 37.1562C96.9375 30.5937 102.656 29.625 105.188 29.625C105.713 29.6063 106.239 29.6589 106.75 29.7813C110.563 39.6563 108.156 46.9688 107.437 48.7813C111.906 53.8125 114.625 60.2187 114.625 68.0312C114.625 95.5937 98.25 101.656 82.6562 103.438C85.1562 105.656 87.4063 110.031 87.4063 116.719C87.4063 126.313 87.3125 134.062 87.3125 136.406C87.3125 138.094 88.2812 140 90.875 140C91.2949 140.002 91.7138 139.96 92.125 139.875C119.969 130.375 140 103.469 140 71.7813C140 32.1563 108.656 0 70 0Z" fill="#F8F8F8"/>
</svg>
