<svg width="28" height="28" viewBox="0 0 32 32" fill="none" xmlns="http://www.w3.org/2000/svg">
<path d="M9.6 25.6C7.84 25.6 6.416 27.04 6.416 28.8C6.416 30.56 7.84 32 9.6 32C11.36 32 12.8 30.56 12.8 28.8C12.8 27.04 11.36 25.6 9.6 25.6ZM0 0V3.2H3.2L8.96 15.344L6.8 19.264C6.544 19.712 6.4 20.24 6.4 20.8C6.4 22.56 7.84 24 9.6 24H28.8V20.8H10.272C10.048 20.8 9.872 20.624 9.872 20.4L9.92 20.208L11.36 17.6H23.28C24.48 17.6 25.536 16.944 26.08 15.952L31.808 5.568C31.936 5.344 32 5.072 32 4.8C32 3.92 31.28 3.2 30.4 3.2H6.736L5.232 0H0ZM25.6 25.6C23.84 25.6 22.416 27.04 22.416 28.8C22.416 30.56 23.84 32 25.6 32C27.36 32 28.8 30.56 28.8 28.8C28.8 27.04 27.36 25.6 25.6 25.6Z" fill="#F8F8F8"/>
</svg>
